<svg xmlns="http://www.w3.org/2000/svg" xmlns:xlink="http://www.w3.org/1999/xlink" version="1.1" x="0px" y="0px" viewBox="0 0 44 55" style="enable-background:new 0 0 44 44;" xml:space="preserve"><g><g><path d="M25,38h-2c-0.6,0-1,0.4-1,1s0.4,1,1,1h2c0.6,0,1-0.4,1-1S25.6,38,25,38z"/><path d="M7,35H5c-0.6,0-1,0.4-1,1s0.4,1,1,1h2c0.6,0,1-0.4,1-1S7.6,35,7,35z"/><path d="M7,32H5c-0.6,0-1,0.4-1,1s0.4,1,1,1h2c0.6,0,1-0.4,1-1S7.6,32,7,32z"/><path d="M7,29H5c-0.6,0-1,0.4-1,1s0.4,1,1,1h2c0.6,0,1-0.4,1-1S7.6,29,7,29z"/><path d="M26,6h-4c-0.6,0-1,0.4-1,1v14c0,0.6,0.4,1,1,1h4c0.6,0,1-0.4,1-1V7C27,6.4,26.6,6,26,6z M25,20h-2V8h2V20z"/><path d="M35,33c0.6,0,1-0.4,1-1V20c0-0.6-0.4-1-1-1s-1,0.4-1,1v12C34,32.6,34.4,33,35,33z"/><path d="M39,33c0.6,0,1-0.4,1-1v-6c0-0.6-0.4-1-1-1s-1,0.4-1,1v6C38,32.6,38.4,33,39,33z"/><path d="M25,33v-6c0-0.6-0.4-1-1-1s-1,0.4-1,1v6c0,0.6,0.4,1,1,1S25,33.6,25,33z"/><path d="M41,8h-8c-0.4,0-0.7,0.1-1,0.2V3c0-1.7-1.3-3-3-3H19c-1.7,0-3,1.3-3,3v8.2c-0.3-0.1-0.6-0.2-1-0.2h-2    c-1.4,0-2.5,0.9-2.9,2.2C9.8,13.1,9.4,13,9,13H3c-1.7,0-3,1.3-3,3v25c0,1.7,1.3,3,3,3h6c0.8,0,1.5-0.3,2-0.8    c0.5,0.5,1.2,0.8,2,0.8h2c0.8,0,1.5-0.3,2-0.8c0.5,0.5,1.2,0.8,2,0.8h10c0.8,0,1.5-0.3,2-0.8c0.5,0.5,1.2,0.8,2,0.8h8    c1.7,0,3-1.3,3-3V11C44,9.3,42.7,8,41,8z M2,16c0-0.6,0.4-1,1-1h6c0.6,0,1,0.4,1,1v1H2V16z M2,19h8v19H2V19z M9,42H3    c-0.6,0-1-0.4-1-1v-1h8v1C10,41.6,9.6,42,9,42z M15,42h-2c-0.6,0-1-0.4-1-1V16v-2c0-0.6,0.4-1,1-1h2c0.6,0,1,0.4,1,1v27    C16,41.6,15.6,42,15,42z M29,42H19c-0.6,0-1-0.4-1-1V14V3c0-0.6,0.4-1,1-1h10c0.6,0,1,0.4,1,1v8v30C30,41.6,29.6,42,29,42z M42,41    c0,0.6-0.4,1-1,1h-8c-0.6,0-1-0.4-1-1v-1h10V41z M42,38H32V14h10V38z M42,12H32v-1c0-0.6,0.4-1,1-1h8c0.6,0,1,0.4,1,1V12z"/><circle cx="14" cy="40" r="1"/><circle cx="14" cy="37" r="1"/><circle cx="14" cy="34" r="1"/></g></g></svg>